Coordinates
version=1
nRows=13
nColumns=22
inDegrees=yes

Units are S.I. units (second, meters, Newtons, ...)
If the header above contains a line with 'inDegrees', this indicates whether rotational values are in degrees (yes) or radians (no).

endheader
time	pelvis_tilt	pelvis_list	pelvis_rotation	pelvis_tx	pelvis_ty	pelvis_tz	hip_flexion_r	hip_adduction_r	hip_rotation_r	knee_angle_r	ankle_angle_r	subtalar_angle_r	hip_flexion_l	hip_adduction_l	hip_rotation_l	knee_angle_l	ankle_angle_l	subtalar_angle_l	lumbar_extension	lumbar_bending	lumbar_rotation
      1.71000000	    -11.19765327	     -0.38483980	      2.26829036	     -0.96265816	      0.87510953	     -0.64326334	     16.55066320	     -6.60936976	      1.38648310	    -20.97387899	     16.60321774	      2.71186827	      9.96480871	      1.10631343	     -5.84627284	    -12.22549639	     17.43169265	      2.73931656	      4.36811298	     -4.06014015	     13.41044584
      1.72000000	    -10.97846351	     -0.31145305	      2.40630022	     -0.96124620	      0.87502001	     -0.64530456	     17.16255710	     -6.79729770	      1.57724935	    -22.77157237	     16.58486466	      2.90160259	      9.62679944	      1.34030326	     -5.57087022	    -12.23251286	     17.53168007	      2.52818674	      4.07445694	     -4.16919106	     13.40142099
      1.73000000	    -10.72232127	     -0.28768561	      2.55178201	     -0.95979310	      0.87502720	     -0.64739494	     17.81728790	     -6.91976938	      1.79901575	    -24.72320210	     16.43637989	      3.02773418	      9.22872913	      1.51975918	     -5.31740713	    -12.20187489	     17.70832888	      2.38150078	      3.73538698	     -4.20881128	     13.32247409
      1.74000000	    -10.47386773	     -0.29482746	      2.69108386	     -0.95834411	      0.87509937	     -0.64948730	     18.58756399	     -6.98712216	      2.06796199	    -26.85316060	     16.10096549	      3.14924390	      8.82353136	      1.66424957	     -5.07089030	    -12.14018161	     17.81256509	      2.22845847	      3.40243424	     -4.21069236	     13.26199185
      1.75000000	    -10.21291253	     -0.33318653	      2.83339467	     -0.95687015	      0.87525299	     -0.65161300	     19.44858677	     -7.00177100	      2.36315882	    -29.15825525	     15.57791613	      3.21568889	      8.38282611	      1.77354252	     -4.84250270	    -12.03653252	     17.92741880	      2.12340483	      3.05083596	     -4.16804208	     13.16713794
      1.76000000	     -9.95641806	     -0.40351788	      2.97845851	     -0.95537065	      0.87546080	     -0.65373245	     20.42065949	     -6.95822951	      2.66506895	    -31.63025158	     14.86365664	      3.22434442	      7.92453498	      1.84371039	     -4.64511627	    -11.89011096	     18.03036105	      2.05306762	      2.70137787	     -4.08695059	     13.04940344
      1.77000000	     -9.67607397	     -0.48858084	      3.13269110	     -0.95383545	      0.87575697	     -0.65585961	     21.46254562	     -6.87791637	      2.95449558	    -34.24645512	     13.96146251	      3.14150363	      7.41913814	      1.89322346	     -4.44939807	    -11.70438381	     18.09111471	      2.06050029	      2.31754840	     -3.98661263	     12.91497659
      1.78000000	     -9.39776178	     -0.59203910	      3.29730604	     -0.95224188	      0.87608093	     -0.65797568	     22.58998383	     -6.76170025	      3.19875718	    -36.97391127	     12.91084034	      2.95366100	      6.88904976	      1.91666126	     -4.28800164	    -11.47044085	     18.14640521	      2.11703258	      1.93379981	     -3.86395679	     12.74891107
      1.79000000	     -9.11975040	     -0.70910397	      3.48227082	     -0.95058723	      0.87641522	     -0.66006497	     23.77980796	     -6.61759926	      3.38073627	    -39.76911645	     11.75022181	      2.52087146	      6.34897225	      1.91624786	     -4.15193693	    -11.22155647	     18.22802595	      2.24799877	      1.54594431	     -3.72994761	     12.53772133
      1.80000000	     -8.80623532	     -0.82765171	      3.69134207	     -0.94879311	      0.87682226	     -0.66214623	     24.95858972	     -6.47053291	      3.46774613	    -42.56612705	     10.54146937	      1.96291955	      5.72657147	      1.90733382	     -4.02093792	    -10.90067493	     18.25180243	      2.42035735	      1.12019253	     -3.59256884	     12.28523141
      1.81000000	     -8.47637803	     -0.92418265	      3.92631534	     -0.94688104	      0.87723344	     -0.66422324	     26.13839256	     -6.35335829	      3.46962601	    -45.34273601	      9.38916967	      1.33889401	      5.04646050	      1.91682403	     -3.85763818	    -10.51788323	     18.26628514	      2.60299831	      0.67449509	     -3.48055265	     12.00181671
      1.82000000	     -8.12025095	     -1.03673055	      4.20284981	     -0.94482953	      0.87767344	     -0.66630204	     27.26947675	     -6.23494820	      3.34883768	    -48.02625692	      8.31943396	      0.51153393	      4.32608494	      1.89797752	     -3.70428430	    -10.12272146	     18.26682394	      2.80480659	      0.20085608	     -3.34710883	     11.65256627
      1.83000000	     -7.74143619	     -1.15562994	      4.51816590	     -0.94263542	      0.87813196	     -0.66838214	     28.33851523	     -6.12522547	      3.12931230	    -50.58083920	      7.41636537	     -0.34512207	      3.56572550	      1.86160598	     -3.54670034	     -9.71040181	     18.23833988	      2.98765465	     -0.29503055	     -3.20159579	     11.24344874
